<svg xmlns="http://www.w3.org/2000/svg" viewBox="0 0 1114 1412"><path fill="white" fill-rule="evenodd" d="M660 40L676 40L676 41L684 42L684 43L690 45L691 47L693 47L693 48L699 53L699 55L701 56L701 58L702 58L703 62L704 62L704 66L705 66L705 82L704 82L703 89L702 89L702 91L701 91L699 97L698 97L697 100L695 101L695 103L692 105L692 107L691 107L691 108L690 108L690 109L689 109L689 110L688 110L688 111L687 111L687 112L686 112L686 113L685 113L685 114L684 114L684 115L683 115L683 116L682 116L682 117L681 117L681 118L680 118L680 119L679 119L679 120L678 120L678 121L677 121L677 122L676 122L676 123L675 123L670 129L669 129L669 130L668 130L668 131L667 131L667 132L666 132L666 133L665 133L665 134L663 134L662 137L660 137L660 138L661 138L661 139L667 139L667 140L674 140L674 141L684 142L684 143L687 143L687 144L691 144L691 145L697 146L697 147L700 147L700 148L704 149L704 150L707 150L707 151L709 151L709 152L711 152L711 153L717 155L717 156L719 156L719 157L721 157L722 159L726 160L726 161L729 162L730 164L732 164L733 166L735 166L737 169L739 169L744 175L746 175L746 176L747 176L747 177L748 177L748 178L749 178L749 179L755 184L755 186L760 190L760 192L764 195L764 197L766 198L766 200L767 200L768 203L770 204L770 206L772 207L774 213L776 214L776 216L777 216L777 218L778 218L780 224L781 224L781 227L782 227L784 233L785 233L785 236L786 236L786 238L787 238L787 241L788 241L788 243L789 243L790 249L791 249L791 252L792 252L792 256L793 256L794 262L795 262L795 266L796 266L796 270L797 270L797 274L798 274L798 279L799 279L799 284L800 284L800 290L801 290L801 296L802 296L802 304L803 304L803 314L804 314L805 354L804 354L804 373L803 373L802 393L801 393L801 400L800 400L800 407L799 407L799 413L798 413L797 425L796 425L796 430L795 430L795 435L794 435L794 439L793 439L792 448L791 448L791 453L790 453L790 457L789 457L789 461L788 461L788 465L787 465L787 469L786 469L786 472L785 472L785 476L784 476L784 479L783 479L783 483L782 483L781 489L780 489L780 493L779 493L779 496L778 496L777 502L776 502L775 508L774 508L774 512L773 512L773 514L772 514L772 517L771 517L770 523L769 523L768 529L767 529L767 532L766 532L766 534L765 534L765 537L764 537L763 543L762 543L762 545L761 545L760 551L759 551L759 553L758 553L757 559L756 559L756 561L755 561L755 564L754 564L754 566L753 566L753 569L752 569L750 575L764 576L764 577L771 577L771 578L778 578L778 579L788 580L788 581L792 581L792 582L796 582L796 583L804 584L804 585L807 585L807 586L811 586L811 587L817 588L817 589L823 590L823 591L829 592L829 593L831 593L831 594L834 594L834 595L839 596L839 597L843 598L843 599L846 599L846 600L848 600L848 601L850 601L850 602L852 602L852 603L854 603L854 604L856 604L856 605L858 605L858 606L864 608L864 609L866 609L866 610L868 610L868 611L870 611L870 612L872 612L873 614L879 616L880 618L884 619L885 621L887 621L887 622L890 623L891 625L893 625L894 627L896 627L897 629L899 629L900 631L903 631L903 630L907 629L907 628L913 627L913 626L918 626L918 625L935 625L935 626L942 627L942 628L948 630L949 632L951 632L951 633L957 638L957 640L959 641L961 647L969 648L969 649L973 649L973 650L979 651L979 652L981 652L981 653L984 653L984 654L988 655L989 657L993 658L994 660L996 660L997 662L999 662L1001 665L1003 665L1003 666L1004 666L1004 667L1005 667L1005 668L1006 668L1006 669L1007 669L1007 670L1008 670L1008 671L1014 676L1014 677L1015 677L1015 678L1016 678L1016 680L1017 680L1017 681L1019 682L1019 684L1022 686L1023 690L1025 691L1025 693L1026 693L1027 697L1029 698L1029 701L1030 701L1031 705L1032 705L1033 711L1034 711L1034 715L1035 715L1035 719L1036 719L1036 724L1037 724L1037 732L1038 732L1037 750L1036 750L1036 755L1035 755L1034 761L1033 761L1033 764L1032 764L1032 768L1033 768L1034 771L1038 774L1038 776L1039 776L1039 777L1041 778L1041 780L1044 782L1044 784L1047 786L1047 788L1050 790L1050 792L1051 792L1052 795L1055 797L1055 799L1056 799L1057 802L1059 803L1061 809L1063 810L1063 812L1064 812L1064 814L1065 814L1065 817L1066 817L1067 822L1068 822L1068 825L1069 825L1069 830L1070 830L1069 844L1068 844L1068 847L1067 847L1066 851L1064 852L1064 854L1063 854L1061 857L1059 857L1058 859L1053 860L1053 861L1049 861L1049 862L1035 861L1035 860L1032 860L1032 859L1030 859L1030 858L1024 856L1024 855L1022 855L1021 853L1019 853L1019 852L1018 852L1017 850L1015 850L1010 844L1008 844L1008 843L1005 841L1005 839L1004 839L1004 838L1003 838L1003 837L997 832L997 830L994 828L994 826L993 826L993 825L991 824L991 822L989 821L989 819L986 817L986 815L984 814L983 810L981 809L981 807L979 806L978 803L977 803L976 805L974 805L972 808L970 808L969 810L967 810L967 811L961 813L961 814L953 815L953 816L942 816L942 815L938 815L938 814L935 814L935 813L929 811L928 809L926 809L926 808L920 803L920 801L918 800L918 798L917 798L916 794L915 794L914 789L913 789L913 788L905 787L905 786L899 784L898 782L896 782L896 781L895 781L895 780L894 780L894 779L893 779L893 778L887 773L887 771L885 770L885 768L883 767L883 765L882 765L881 761L880 761L879 755L878 755L878 752L877 752L877 748L876 748L876 742L875 742L875 721L876 721L877 712L876 712L876 711L872 708L872 706L869 704L869 702L868 702L868 700L867 700L867 697L866 697L866 693L865 693L865 678L866 678L866 674L867 674L867 672L866 672L865 670L863 670L861 667L859 667L859 666L856 665L855 663L853 663L852 661L848 660L847 658L841 656L840 654L838 654L838 653L836 653L836 652L834 652L834 651L832 651L832 650L830 650L830 649L824 647L824 646L822 646L822 645L820 645L820 644L817 644L817 643L815 643L815 642L812 642L812 641L810 641L810 640L807 640L807 639L802 638L802 637L799 637L799 636L795 636L795 635L792 635L792 634L788 634L788 633L784 633L784 632L776 631L776 630L763 629L763 628L755 628L755 627L728 627L727 630L726 630L726 633L725 633L725 635L724 635L724 638L723 638L723 640L722 640L722 643L721 643L720 647L719 647L719 650L718 650L717 654L716 654L716 657L715 657L714 661L713 661L713 664L712 664L711 668L710 668L710 671L709 671L708 675L707 675L707 678L706 678L706 680L705 680L705 683L704 683L704 685L703 685L701 691L700 691L700 694L699 694L699 696L698 696L697 700L696 700L696 703L695 703L694 707L693 707L693 710L692 710L692 712L691 712L691 714L690 714L688 720L687 720L687 722L686 722L686 724L685 724L685 727L684 727L684 729L683 729L683 731L682 731L682 733L681 733L681 735L680 735L680 737L679 737L677 743L676 743L676 745L675 745L675 747L674 747L674 749L672 750L672 752L671 752L669 758L668 758L668 760L666 761L665 765L663 766L661 772L659 773L658 777L656 778L656 780L654 781L653 785L650 787L650 789L649 789L648 792L647 792L647 794L646 794L645 797L643 798L643 800L640 802L640 804L637 806L637 808L634 810L634 812L631 814L631 816L630 816L630 817L627 819L627 821L622 825L622 827L621 827L621 828L615 833L615 835L614 835L614 836L613 836L613 837L612 837L612 838L611 838L611 839L610 839L610 840L609 840L609 841L608 841L608 842L607 842L607 843L606 843L606 844L605 844L605 845L604 845L604 846L603 846L603 847L602 847L602 848L601 848L601 849L600 849L600 850L599 850L599 851L598 851L598 852L597 852L597 853L596 853L596 854L595 854L595 855L589 860L589 861L588 861L588 862L587 862L587 863L586 863L586 864L585 864L585 865L584 865L584 866L582 866L577 872L575 872L575 873L571 876L571 878L574 880L574 882L575 882L575 883L576 883L576 884L577 884L577 885L578 885L578 886L584 891L584 892L585 892L585 894L590 898L590 900L595 904L595 906L598 908L598 910L602 913L602 915L605 917L605 919L607 920L607 922L610 924L610 926L612 927L612 929L613 929L614 932L617 934L617 936L618 936L619 939L620 939L620 941L621 941L622 944L624 945L624 947L626 948L627 952L629 953L630 957L632 958L633 962L635 963L635 965L636 965L636 967L637 967L639 973L640 973L640 975L642 976L642 978L643 978L643 980L644 980L644 982L645 982L647 988L648 988L648 990L649 990L649 992L650 992L650 995L651 995L651 997L652 997L654 1003L655 1003L655 1006L656 1006L656 1008L657 1008L657 1010L658 1010L658 1013L659 1013L659 1015L660 1015L660 1018L661 1018L661 1020L662 1020L662 1023L663 1023L663 1026L664 1026L664 1029L665 1029L665 1031L666 1031L667 1036L668 1036L668 1035L679 1035L679 1036L687 1036L687 1037L692 1037L692 1038L698 1039L698 1040L704 1042L705 1044L707 1044L708 1046L710 1046L710 1047L711 1047L711 1048L717 1053L717 1055L719 1056L719 1058L720 1058L721 1062L722 1062L723 1069L724 1069L724 1081L723 1081L722 1088L721 1088L720 1092L719 1092L720 1094L729 1097L729 1098L732 1099L733 1101L735 1101L737 1104L739 1104L741 1107L744 1106L744 1105L747 1105L747 1104L750 1104L750 1103L756 1102L756 1101L760 1101L760 1100L764 1100L764 1099L769 1099L769 1098L774 1098L774 1097L781 1097L781 1096L811 1096L811 1097L818 1097L818 1098L822 1098L822 1099L827 1099L827 1100L830 1100L830 1101L836 1102L836 1103L839 1103L839 1104L841 1104L841 1105L844 1105L844 1106L846 1106L846 1107L852 1109L853 1111L855 1111L855 1112L858 1113L859 1115L861 1115L865 1120L867 1120L867 1121L873 1126L873 1128L877 1131L877 1133L878 1133L879 1136L881 1137L881 1139L883 1140L883 1142L884 1142L886 1148L887 1148L888 1154L889 1154L889 1157L890 1157L890 1162L891 1162L891 1169L892 1169L892 1176L891 1176L890 1189L889 1189L889 1192L888 1192L888 1194L887 1194L885 1200L884 1200L885 1203L886 1203L886 1205L887 1205L887 1207L888 1207L888 1211L889 1211L889 1223L894 1223L894 1224L898 1224L898 1225L906 1226L906 1227L909 1227L909 1228L915 1229L915 1230L921 1232L922 1234L924 1234L924 1235L926 1236L926 1242L925 1242L925 1244L924 1244L923 1246L921 1246L920 1248L918 1248L918 1249L916 1249L916 1250L913 1250L913 1251L911 1251L911 1252L908 1252L908 1253L902 1254L902 1255L896 1256L896 1257L892 1257L892 1258L888 1258L888 1259L883 1259L883 1260L878 1260L878 1261L873 1261L873 1262L867 1262L867 1263L861 1263L861 1264L853 1264L853 1265L845 1265L845 1266L836 1266L836 1267L807 1268L807 1269L752 1270L752 1269L710 1268L710 1267L698 1267L698 1266L688 1266L688 1265L679 1265L679 1264L671 1264L671 1263L655 1262L655 1261L642 1260L642 1259L636 1259L636 1258L630 1258L630 1257L625 1257L625 1256L619 1256L619 1255L609 1254L609 1253L604 1253L604 1252L600 1252L600 1251L595 1251L595 1250L588 1249L588 1248L584 1248L584 1247L580 1247L580 1246L576 1246L576 1245L570 1244L570 1243L564 1242L564 1241L562 1241L562 1240L560 1240L560 1239L557 1239L556 1237L552 1236L552 1235L548 1232L548 1229L547 1229L549 1223L550 1223L551 1221L553 1221L554 1219L556 1219L556 1218L558 1218L558 1217L561 1217L561 1216L565 1215L564 1201L565 1201L565 1197L566 1197L568 1191L569 1191L569 1187L568 1187L568 1184L567 1184L567 1179L566 1179L566 1163L567 1163L567 1157L568 1157L568 1154L569 1154L569 1150L570 1150L570 1148L571 1148L571 1145L572 1145L572 1143L573 1143L575 1137L576 1137L576 1135L578 1134L578 1132L579 1132L580 1129L582 1128L582 1126L588 1121L588 1119L589 1119L593 1114L596 1113L595 1111L593 1111L593 1110L590 1108L590 1106L587 1104L587 1102L586 1102L585 1098L584 1098L583 1091L582 1091L582 1080L583 1080L583 1076L584 1076L584 1073L585 1073L587 1067L588 1067L589 1064L593 1061L593 1059L595 1059L599 1054L603 1053L604 1051L610 1049L609 1043L608 1043L607 1037L606 1037L605 1033L604 1033L604 1030L603 1030L603 1028L602 1028L602 1025L601 1025L600 1021L599 1021L599 1018L598 1018L598 1016L597 1016L597 1014L596 1014L596 1012L595 1012L595 1010L594 1010L594 1008L593 1008L591 1002L590 1002L590 1000L589 1000L589 998L588 998L588 996L587 996L587 994L585 993L583 987L581 986L580 982L578 981L577 977L575 976L575 974L574 974L573 971L571 970L571 968L569 967L569 965L567 964L567 962L565 961L565 959L562 957L562 955L561 955L561 954L559 953L559 951L556 949L556 947L553 945L553 943L548 939L548 937L547 937L547 936L541 931L541 929L540 929L540 928L539 928L539 927L538 927L538 926L537 926L537 925L536 925L536 924L535 924L535 923L534 923L534 922L533 922L533 921L532 921L532 920L531 920L531 919L530 919L530 918L529 918L524 912L523 912L523 911L522 911L522 910L521 910L521 909L518 909L517 911L514 911L514 912L508 914L508 915L505 915L505 916L503 916L503 917L500 917L500 918L494 919L494 920L492 920L492 921L485 922L485 923L482 923L482 924L478 924L478 925L474 925L474 926L470 926L470 927L460 928L460 929L453 929L453 930L428 931L428 932L426 933L426 935L422 938L422 940L419 942L419 944L416 946L416 948L414 949L414 951L411 953L410 957L408 958L408 960L406 961L405 965L403 966L403 968L402 968L402 970L401 970L401 972L400 972L400 974L399 974L399 976L398 976L396 982L395 982L395 984L394 984L394 986L393 986L393 989L392 989L392 991L391 991L391 994L390 994L390 996L389 996L388 1002L387 1002L386 1008L385 1008L385 1012L384 1012L384 1016L383 1016L382 1024L381 1024L381 1029L380 1029L379 1045L378 1045L378 1046L380 1046L380 1047L384 1047L384 1048L387 1048L387 1049L390 1049L390 1050L392 1050L392 1051L398 1053L398 1054L400 1054L402 1057L404 1057L404 1058L405 1058L405 1059L411 1064L411 1066L413 1067L413 1069L414 1069L416 1075L417 1075L418 1082L419 1082L419 1093L418 1093L418 1098L417 1098L417 1101L416 1101L414 1107L412 1108L412 1110L411 1110L407 1115L413 1120L413 1122L417 1125L417 1127L418 1127L419 1130L421 1131L421 1133L423 1134L423 1136L424 1136L424 1138L425 1138L425 1141L426 1141L426 1143L427 1143L428 1149L429 1149L430 1157L431 1157L431 1176L430 1176L430 1180L429 1180L428 1186L427 1186L427 1188L426 1188L426 1191L427 1191L427 1193L428 1193L428 1196L429 1196L429 1200L430 1200L430 1207L429 1207L429 1211L428 1211L428 1213L429 1213L429 1214L434 1214L434 1215L438 1215L438 1216L444 1217L444 1218L450 1219L450 1220L456 1222L456 1223L457 1223L458 1225L460 1225L460 1227L461 1227L461 1233L460 1233L460 1235L459 1235L458 1237L456 1237L455 1239L453 1239L452 1241L450 1241L450 1242L448 1242L448 1243L445 1243L445 1244L441 1245L441 1246L438 1246L438 1247L432 1248L432 1249L426 1250L426 1251L422 1251L422 1252L418 1252L418 1253L414 1253L414 1254L406 1255L406 1256L402 1256L402 1257L397 1257L397 1258L393 1258L393 1259L388 1259L388 1260L378 1261L378 1262L373 1262L373 1263L367 1263L367 1264L362 1264L362 1265L356 1265L356 1266L349 1266L349 1267L342 1267L342 1268L334 1268L334 1269L326 1269L326 1270L317 1270L317 1271L290 1272L290 1273L251 1273L251 1272L235 1272L235 1271L223 1271L223 1270L213 1270L213 1269L197 1268L197 1267L191 1267L191 1266L179 1265L179 1264L174 1264L174 1263L169 1263L169 1262L164 1262L164 1261L160 1261L160 1260L156 1260L156 1259L152 1259L152 1258L148 1258L148 1257L142 1256L142 1255L140 1255L140 1254L137 1254L137 1253L132 1252L132 1251L130 1251L129 1249L127 1249L127 1248L124 1246L124 1244L123 1244L123 1241L124 1241L124 1239L125 1239L126 1237L128 1237L129 1235L131 1235L131 1234L133 1234L133 1233L136 1233L136 1232L138 1232L138 1231L142 1231L142 1230L148 1229L148 1228L153 1228L153 1227L157 1227L157 1226L160 1226L160 1225L161 1225L161 1217L162 1217L163 1211L164 1211L165 1208L166 1208L166 1207L165 1207L165 1204L164 1204L164 1201L163 1201L163 1196L162 1196L162 1182L163 1182L164 1172L165 1172L166 1166L167 1166L168 1162L169 1162L169 1159L170 1159L172 1153L174 1152L175 1148L176 1148L177 1145L180 1143L180 1141L186 1136L186 1134L187 1134L190 1130L192 1130L197 1124L199 1124L200 1122L202 1122L204 1119L210 1117L211 1115L213 1115L213 1114L219 1112L219 1111L222 1111L222 1110L227 1109L227 1108L230 1108L230 1107L239 1106L239 1105L245 1105L245 1104L268 1104L268 1105L275 1105L275 1106L278 1106L278 1105L281 1104L282 1102L286 1101L286 1099L285 1099L283 1093L282 1093L282 1089L281 1089L281 1073L282 1073L282 1070L283 1070L284 1065L285 1065L286 1062L288 1061L288 1059L289 1059L294 1053L296 1053L297 1051L299 1051L300 1049L305 1048L305 1047L307 1047L307 1046L310 1046L310 1045L319 1044L319 1041L320 1041L320 1031L321 1031L321 1024L322 1024L322 1018L323 1018L324 1008L325 1008L326 1000L327 1000L327 997L328 997L328 993L329 993L330 987L331 987L332 981L333 981L333 979L334 979L334 976L335 976L335 974L336 974L337 969L338 969L338 966L339 966L339 964L340 964L340 962L341 962L341 960L342 960L342 958L343 958L343 956L344 956L346 950L347 950L347 948L348 948L348 946L349 946L349 944L350 944L350 942L352 941L353 937L355 936L356 932L358 931L358 929L359 929L360 926L362 925L362 923L364 922L364 919L362 919L362 918L360 918L360 917L358 917L358 916L356 916L356 915L350 913L350 912L348 912L348 911L346 911L346 910L344 910L343 908L341 908L341 907L339 907L338 905L336 905L335 903L333 903L332 914L331 914L331 918L330 918L329 924L328 924L326 930L324 931L324 933L323 933L323 934L322 934L322 935L321 935L316 941L314 941L313 943L311 943L311 944L309 944L309 945L302 946L302 947L292 947L292 946L288 946L288 945L283 944L283 943L280 942L279 940L277 940L277 939L274 937L274 935L272 934L272 932L270 931L269 926L268 926L268 923L267 923L267 917L257 917L257 916L250 915L250 914L246 913L245 911L243 911L243 910L238 906L238 904L236 903L236 901L235 901L234 897L233 897L233 894L232 894L232 889L231 889L232 878L233 878L234 873L235 873L235 870L234 870L233 868L231 868L231 867L230 867L230 866L224 861L224 859L222 858L221 853L220 853L220 849L219 849L219 839L220 839L221 832L222 832L223 829L225 828L225 826L226 826L228 823L230 823L232 820L237 819L237 818L240 818L240 817L245 817L245 816L259 817L259 818L263 818L263 819L269 820L269 821L271 821L271 822L273 822L273 823L279 825L279 826L281 826L280 816L279 816L279 791L280 791L280 785L281 785L281 781L282 781L283 773L284 773L284 770L285 770L285 768L286 768L286 765L287 765L289 759L290 759L290 756L291 756L292 752L294 751L295 747L296 747L297 744L299 743L300 739L302 738L302 736L303 736L303 735L305 734L305 732L308 730L308 728L310 727L310 725L315 721L315 719L316 719L316 718L319 716L319 714L323 711L323 709L329 704L329 702L333 699L333 697L337 694L337 692L341 689L341 687L344 685L344 683L347 681L347 679L350 677L350 675L351 675L351 674L353 673L353 671L355 670L355 668L358 666L358 664L359 664L360 661L362 660L362 658L364 657L365 653L366 653L367 650L369 649L370 645L372 644L373 640L375 639L375 637L376 637L377 633L379 632L379 630L380 630L382 624L384 623L384 620L385 620L385 619L383 619L383 620L379 621L378 623L376 623L376 624L370 626L370 627L367 627L367 628L365 628L365 629L359 630L359 631L357 631L357 632L349 633L349 634L344 634L344 635L333 635L333 636L331 636L331 635L320 635L320 634L311 633L311 632L308 632L308 631L304 630L304 629L301 629L301 628L297 627L296 625L294 625L294 624L292 624L291 622L289 622L288 620L286 620L283 616L281 616L281 615L280 615L280 614L279 614L279 613L278 613L278 612L277 612L277 611L276 611L276 610L275 610L275 609L274 609L274 608L268 603L268 602L267 602L267 601L266 601L266 600L265 600L265 598L262 596L262 594L258 591L258 589L256 588L256 586L254 585L254 583L251 583L251 584L239 584L239 583L234 583L234 582L230 582L230 581L228 581L228 580L225 580L225 579L223 579L222 577L220 577L219 575L217 575L217 574L214 572L214 570L211 568L211 566L210 566L210 564L209 564L208 561L207 561L207 562L200 562L200 563L167 563L167 562L159 562L159 561L153 561L153 560L149 560L149 559L144 559L144 558L141 558L141 557L137 557L137 556L131 555L131 554L129 554L129 553L126 553L126 552L123 552L123 551L121 551L121 550L119 550L119 549L117 549L117 548L115 548L115 547L109 545L109 544L107 544L107 543L105 543L105 542L102 541L101 539L99 539L97 536L95 536L95 535L94 535L94 534L93 534L93 533L92 533L92 532L91 532L91 531L85 526L85 525L84 525L84 523L82 522L82 520L81 520L81 518L80 518L79 512L78 512L78 503L72 501L71 499L67 498L66 496L64 496L64 495L58 490L58 488L56 487L56 485L55 485L54 481L53 481L53 478L52 478L52 473L51 473L52 462L53 462L53 459L54 459L56 453L57 453L57 452L58 452L58 451L59 451L64 445L66 445L66 444L70 443L70 442L73 442L74 437L75 437L75 434L77 433L77 431L78 431L78 430L79 430L84 424L86 424L87 422L89 422L89 421L91 421L91 420L97 419L97 418L101 418L101 417L108 417L108 416L128 417L128 418L133 418L133 419L142 420L142 421L148 422L148 423L151 423L151 424L155 424L155 425L161 426L161 427L164 427L164 428L168 428L168 429L172 429L172 430L177 430L177 431L185 431L185 432L186 432L187 430L185 429L185 427L184 427L182 421L181 421L180 414L179 414L179 409L178 409L178 397L179 397L180 389L181 389L183 383L185 382L186 378L187 378L187 377L188 377L193 371L195 371L196 369L198 369L198 368L204 366L204 365L213 364L213 363L226 364L226 365L232 366L232 367L234 367L235 369L237 369L237 370L238 370L238 371L244 376L244 378L246 379L246 381L247 381L248 385L249 385L249 388L250 388L253 414L254 414L254 417L255 417L256 421L258 422L258 424L259 424L264 430L266 430L266 431L269 432L269 433L271 433L271 434L274 435L277 439L279 439L279 440L280 440L280 441L281 441L281 442L282 442L282 443L288 448L288 450L289 450L290 453L292 454L292 456L293 456L295 462L296 462L297 468L298 468L298 472L299 472L299 479L300 479L299 494L300 494L300 495L301 495L301 496L307 501L307 503L309 504L309 506L310 506L310 508L311 508L311 511L312 511L312 516L313 516L313 528L312 528L311 537L310 537L310 539L309 539L309 542L308 542L307 546L305 547L305 549L304 549L304 551L303 551L303 553L305 554L305 556L308 558L308 560L313 564L313 566L314 566L317 570L319 570L319 571L320 571L321 573L323 573L324 575L329 576L329 577L332 577L332 578L340 578L340 577L348 576L348 575L353 574L353 573L355 573L356 571L362 569L363 567L367 566L368 564L370 564L372 561L374 561L375 559L377 559L380 555L382 555L387 549L389 549L389 548L390 548L390 547L391 547L391 546L392 546L392 545L393 545L393 544L394 544L394 543L395 543L395 542L396 542L396 541L397 541L397 540L398 540L398 539L399 539L399 538L400 538L400 537L401 537L401 536L402 536L402 535L403 535L403 534L404 534L404 533L405 533L405 532L406 532L406 531L407 531L407 530L408 530L408 529L414 524L414 523L415 523L415 522L416 522L416 521L417 521L417 520L418 520L418 519L419 519L419 516L420 516L421 510L422 510L422 507L423 507L423 505L424 505L425 499L426 499L427 493L428 493L428 489L429 489L430 483L431 483L432 477L433 477L433 473L434 473L435 467L436 467L436 463L437 463L438 457L439 457L439 453L440 453L440 450L441 450L442 443L443 443L444 435L445 435L445 432L446 432L446 428L447 428L447 424L448 424L448 420L449 420L449 416L450 416L450 412L451 412L451 408L452 408L453 400L454 400L454 396L455 396L455 391L456 391L456 387L457 387L457 382L458 382L459 372L460 372L460 368L461 368L461 362L462 362L462 357L463 357L463 351L464 351L464 345L465 345L465 339L466 339L466 333L467 333L467 327L468 327L468 320L469 320L469 314L470 314L470 307L471 307L471 301L472 301L472 295L473 295L473 289L474 289L475 279L476 279L476 274L477 274L477 270L478 270L478 266L479 266L480 259L481 259L481 256L482 256L482 252L483 252L484 247L485 247L486 241L487 241L488 237L489 237L489 234L490 234L490 232L491 232L491 230L492 230L492 228L493 228L495 222L496 222L496 220L497 220L497 218L499 217L500 213L502 212L503 208L506 206L506 204L508 203L508 201L509 201L509 200L511 199L511 197L515 194L515 192L516 192L516 191L517 191L517 190L518 190L518 189L519 189L519 188L520 188L520 187L521 187L521 186L522 186L522 185L523 185L528 179L529 179L529 178L530 178L530 177L531 177L531 176L533 176L537 171L539 171L539 170L542 169L544 166L548 165L549 163L551 163L552 161L554 161L554 160L558 159L559 157L565 155L565 154L562 154L562 153L556 153L556 152L545 152L545 151L531 150L531 149L524 148L524 147L519 146L519 145L517 145L516 143L514 143L514 142L513 142L513 141L507 136L507 134L505 133L505 130L504 130L504 128L503 128L502 116L503 116L503 112L504 112L504 109L505 109L506 105L508 104L508 102L509 102L512 98L514 98L515 96L517 96L517 95L522 94L522 93L525 92L525 81L526 81L527 75L529 74L529 72L530 72L530 71L531 71L536 65L538 65L539 63L541 63L541 62L543 62L543 61L552 60L552 59L561 59L561 60L567 60L567 61L569 61L569 62L575 63L576 59L578 58L578 56L579 56L579 55L580 55L580 54L581 54L586 48L588 48L589 46L591 46L591 45L595 44L595 43L603 42L603 41L616 41L616 42L620 42L620 43L623 43L623 44L629 46L631 49L633 49L635 52L637 52L637 51L638 51L639 49L641 49L642 47L644 47L644 46L650 44L650 43L656 42L656 41L660 41Z"/></svg>
